<svg width="511.80000000000007" height="286.2345504074349" viewBox="0 0 350 195.7446124318136" class="css-1j8o68f"><defs id="SvgjsDefs1318"></defs><g id="SvgjsG1319" featurekey="symbolFeature-0" transform="matrix(1.5673701437361844,0,0,1.5673701437361844,100.0377040561825,-14.124959000850735)" fill="#222831"><g xmlns="http://www.w3.org/2000/svg"><path d="M52.97,26.428c-7.903,0-14.331,6.429-14.331,14.33c0,7.903,6.428,14.331,14.331,14.331c7.901,0,14.33-6.428,14.33-14.331   C67.3,32.856,60.871,26.428,52.97,26.428z"></path><path d="M38.368,46.5c-0.233-0.593-0.436-1.202-0.599-1.828l-18.577,5.247c-1.249-3.026-4.224-5.155-7.698-5.155   c-4.601,0-8.328,3.728-8.328,8.326c0,4.599,3.728,8.328,8.328,8.328c4.599,0,8.326-3.729,8.326-8.328   c0-0.451-0.045-0.889-0.115-1.32L38.368,46.5z"></path><path d="M30.136,20.9c0.23-0.144,0.445-0.302,0.65-0.469l10.63,9.719c0.435-0.474,0.9-0.918,1.389-1.335l-10.721-9.801   c1.357-2.031,1.497-4.75,0.126-6.961c-1.87-3.016-5.83-3.946-8.846-2.076c-3.018,1.87-3.945,5.831-2.076,8.847   S27.119,22.771,30.136,20.9z"></path><path d="M64.758,30.416l11.468-8.525c1.736,1.72,4.377,2.373,6.811,1.447c3.315-1.265,4.98-4.977,3.717-8.292   c-1.265-3.317-4.977-4.981-8.294-3.718c-3.314,1.263-4.98,4.977-3.716,8.292c0.097,0.254,0.213,0.495,0.337,0.729l-11.69,8.69   C63.872,29.469,64.33,29.929,64.758,30.416z"></path><path d="M47.697,74.572c-0.396-0.215-0.804-0.385-1.215-0.53l4.023-17.785c-0.637-0.102-1.263-0.244-1.875-0.42L44.609,73.61   c-3.254-0.348-6.547,1.25-8.206,4.303c-2.194,4.041-0.699,9.097,3.341,11.293c4.042,2.196,9.098,0.7,11.293-3.341   C53.232,81.824,51.738,76.768,47.697,74.572z"></path><path d="M89.794,49.945c-2.887-2.062-6.901-1.394-8.962,1.495c-0.159,0.222-0.296,0.451-0.42,0.683l-13.218-4.748   c-0.275,0.591-0.585,1.16-0.93,1.708l13.496,4.849c-0.47,2.398,0.446,4.958,2.565,6.471c2.889,2.063,6.901,1.393,8.965-1.495   C93.354,56.02,92.683,52.007,89.794,49.945z"></path></g></g><g id="SvgjsG1320" featurekey="nameFeature-0" transform="matrix(1.7163595004527055,0,0,1.7163595004527055,-4.805805291789197,126.40368763141551)" fill="#222831"><path d="M23.4 25 c0 3.6 -2.6 6.2 -6.6 6.2 l-8.8 0 l0 8.8 l-5.2 0 l0 -28 l14 0 c4 0 6.6 2.6 6.6 6.2 l0 6.8 z M8 16.4 l0 10.4 l7.4 0 c1.6 0 2.8 -1.2 2.8 -2.6 l0 -5.2 c0 -1.4 -1.2 -2.6 -2.8 -2.6 l-7.4 0 z M28.69 12 l5.2 0 l0 23.6 l13.6 0 l0 4.4 l-18.8 0 l0 -28 z M67.38 12 l5.2 0 l0 22.2 c0 3.6 -2.6 6.2 -6.6 6.2 l-8 0 c-4 0 -6.6 -2.6 -6.6 -6.2 l0 -22.2 l5.2 0 l0 21.4 c0 1.4 1.2 2.6 2.8 2.6 l5.2 0 c1.6 0 2.8 -1.2 2.8 -2.6 l0 -21.4 z M88.27 34.4 l0.4 0 l6.2 -22.4 l5.2 0 l0 2.2 l-8 25.8 l-7.2 0 l-8 -25.8 l0 -2.2 l5.2 0 z M109.56 40 l-5.2 0 l0 -28 l5.2 0 l0 28 z M126.85 16.4 l0 23.6 l-5.2 0 l0 -23.6 l-8 0 l0 -4.4 l21.2 0 l0 3 l-1.4 1.4 l-6.6 0 z M138.94 40 l0 -28 l19.2 0 l0 3 l-1.4 1.4 l-12.6 0 l0 7.2 l10.2 0 l0 4.4 l-10.2 0 l0 7.6 l14 0 l0 4.4 l-19.2 0 z M167.02999999999997 19 l0 14 c0 1.4 1.2 2.6 2.8 2.6 l11.6 0 l0 4.4 l-13 0 c-4 0 -6.6 -2.6 -6.6 -6.2 l0 -15.6 c0 -3.6 2.6 -6.2 6.6 -6.2 l13 0 l0 3 l-1.4 1.4 l-10.2 0 c-1.6 0 -2.8 1.2 -2.8 2.6 z M185.92 12 l5.2 0 l0 11.6 l10.4 0 l0 -11.6 l5.2 0 l0 28 l-5.2 0 l0 -12 l-10.4 0 l0 12 l-5.2 0 l0 -28 z"></path></g></svg>